<svg version="1" xmlns="http://www.w3.org/2000/svg" width="346.667" height="346.667" viewBox="0 0 260.000000 260.000000"><path d="M119.8 17.5c-.1.1-2.5.6-5.3.9-16.1 2.1-34.4 9.5-48.5 19.4-8.6 6-21.6 19.3-27.4 28C30.5 78 23.2 95.6 21.4 107c-.3 1.9-.8 4.6-1.1 6-1 4.6-1.1 23.5-.2 29 .5 3 1.1 6.9 1.4 8.6 1 6.6 5.9 20.3 10.3 28.9 7.8 15.1 17.7 27 31.2 37.3 3 2.3 6 4.7 6.7 5.2.7.6 1.4 1 1.7 1 .2 0 3.1 1.5 6.3 3.3 3.2 1.9 7.2 3.9 8.8 4.5 1.7.6 5.5 2 8.4 3.1 12.1 4.5 34.1 6.8 48.6 4.9 37.8-4.8 70-28.3 86.6-63.2 7.2-15.2 10.3-29.4 10.3-47.1 0-17.5-3.1-31.8-10.4-47.3-6.6-13.9-12-21.3-23.8-32.9-15.9-15.6-37-26.1-60-29.9-3.5-.6-25.9-1.4-26.4-.9zM143 48.6c16.6 9 19.5 31.2 5.7 44.5-17.6 16.9-47.4 3.1-46.1-21.3 1.1-20.6 22.5-32.9 40.4-23.2zm54.6 55c15.3 7.3 20 28.7 9.4 42.2-5.7 7.2-17.1 11.6-26 10-14.6-2.6-23.9-14.6-22.8-29.6.6-7.8 2.5-11.9 7.8-17.4 8.2-8.2 20.9-10.3 31.6-5.2zM84 102.5c18.8 6.6 24.3 30.9 10.1 45.4-14.1 14.4-38 9.3-45.2-9.7-5.4-14.3 2.3-30.9 16.6-36 4.4-1.5 13.6-1.4 18.5.3zm58 56.7c8.5 4 14.7 13.2 15.4 22.6.3 5.2-1.3 14.2-2.5 14.2-.5 0-.9.6-.9 1.4 0 2.2-7.1 9.1-12 11.7-6.2 3.2-17.6 3.3-23.6.1-10.5-5.4-15.8-13.9-15.7-25.1 0-20.6 20.7-33.7 39.3-24.9z"/></svg>